<svg width="183" height="92" viewBox="0 0 183 92" fill="none" xmlns="http://www.w3.org/2000/svg">
<g clip-path="url(#clip0_1_509)">
<path d="M100.501 56.4717C116.033 56.4717 128.626 43.9138 128.626 28.4229C128.626 12.9319 116.033 0.374071 100.501 0.374065V56.4717ZM100.501 0.374065L2.12646e-05 0.374023L-2.12646e-05 56.4716L100.501 56.4717V0.374065Z" fill="#A4DCC9"/>
<path d="M137.401 126.48C146.555 138.996 164.149 141.742 176.699 132.613C189.248 123.484 192.002 105.939 182.849 93.4229L137.401 126.48ZM123.224 11.8944C114.07 -0.621208 96.4762 -3.36715 83.9265 5.76122C71.377 14.8896 68.6237 32.4355 77.7765 44.9512L123.224 11.8944ZM182.849 93.4229L123.224 11.8944L77.7765 44.9512L137.401 126.48L182.849 93.4229Z" fill="#1BA778"/>
<path d="M100.5 20.1951C105.056 20.1951 108.75 23.8787 108.75 28.4227C108.75 32.9667 105.056 36.6504 100.5 36.6504C95.9437 36.6504 92.25 32.9667 92.25 28.4227C92.25 23.8787 95.9437 20.1951 100.5 20.1951Z" fill="white"/>
</g>
<defs>
<clipPath id="clip0_1_509">
<rect width="183" height="92" fill="white"/>
</clipPath>
</defs>
</svg>
