<svg width="270" height="302" viewBox="0 0 270 302" fill="none" xmlns="http://www.w3.org/2000/svg">
<g clip-path="url(#clip0_1_515)">
<path d="M168.172 278.144C181.381 269.98 185.465 252.661 177.294 239.462C169.122 226.263 151.789 222.182 138.579 230.347L168.172 278.144ZM13.7038 307.533C0.494012 315.698 -3.5901 333.017 4.58164 346.216C12.7534 359.414 30.0865 363.495 43.2962 355.33L13.7038 307.533ZM138.579 230.347L13.7038 307.533L43.2962 355.33L168.172 278.144L138.579 230.347Z" fill="#53A9BA"/>
<path d="M125.25 254.246C125.25 269.766 137.842 282.347 153.375 282.347C168.908 282.347 181.5 269.766 181.5 254.246H125.25ZM181.5 106.618C181.5 91.0974 168.908 78.5161 153.375 78.5161C137.842 78.5161 125.25 91.0974 125.25 106.618H181.5ZM181.5 254.246V106.618H125.25V254.246H181.5Z" fill="#A9D4DD"/>
<path d="M303.483 53.0648C316.96 45.3486 321.625 28.177 313.903 14.7109C306.18 1.24478 288.994 -3.41652 275.517 4.29961L303.483 53.0648ZM139.392 82.2352C125.914 89.9516 121.249 107.123 128.972 120.589C136.695 134.055 153.88 138.717 167.358 131L139.392 82.2352ZM275.517 4.29961L139.392 82.2352L167.358 131L303.483 53.0648L275.517 4.29961Z" fill="#53A9BA"/>
<path d="M153.375 98.375C157.931 98.375 161.625 102.066 161.625 106.618C161.625 111.171 157.931 114.861 153.375 114.861C148.819 114.861 145.125 111.171 145.125 106.618C145.125 102.066 148.819 98.375 153.375 98.375Z" fill="white"/>
<path d="M153.375 245.803C157.931 245.803 161.625 249.493 161.625 254.046C161.625 258.598 157.931 262.289 153.375 262.289C148.819 262.289 145.125 258.598 145.125 254.046C145.125 249.493 148.819 245.803 153.375 245.803Z" fill="white"/>
</g>
<defs>
<clipPath id="clip0_1_515">
<rect width="270" height="302" fill="white"/>
</clipPath>
</defs>
</svg>
